<?xml version="1.0" encoding="UTF-8" standalone="no"?>
<svg width="139px" height="34px" viewBox="0 0 139 34" version="1.1" xmlns="http://www.w3.org/2000/svg" xmlns:xlink="http://www.w3.org/1999/xlink">
    <!-- Generator: sketchtool 41.2 (35397) - http://www.bohemiancoding.com/sketch -->
    <title>8F771AFF-D771-4DC3-8ED6-9236A5BE9CAA</title>
    <desc>Created with sketchtool.</desc>
    <defs></defs>
    <g id="Homepage" stroke="none" stroke-width="1" fill="none" fill-rule="evenodd">
        <g id="1.3-Popups---Get-Started" transform="translate(-651.000000, -277.000000)">
            <g id="Group-7" transform="translate(420.000000, 263.000000)">
                <g id="Header_logo-black-Copy" transform="translate(231.000000, 14.000000)">
                    <g id="Group">
                        <path d="M31.8692534,11.7107156 C31.5558558,10.5215236 31.098264,9.37292296 30.499995,8.2781205 C29.5478837,6.53715735 28.2878456,5.01973823 26.7540731,3.76781404 C25.1661789,2.4714141 23.3539827,1.51761334 21.3669169,0.933602169 C19.944123,0.515646715 18.4785399,0.303561512 17.0096352,0.303561512 L17.0084628,0.303561512 C15.3713316,0.30375573 13.7513943,0.564589454 12.1918309,1.07926508 C10.6547368,1.58636624 9.21377218,2.32769336 7.90860014,3.28207677 C7.82849227,3.34073037 7.74936133,3.39957819 7.67159809,3.45959131 L7.68488427,3.44405393 C3.42568585,6.56667837 0.66255066,11.5893299 0.66255066,17.253675 C0.66255066,19.1853595 0.984935971,21.0422703 1.5773434,22.7750763 C1.8737425,23.7131455 2.26216796,24.6234416 2.74164284,25.4993612 C3.69375412,27.2401302 4.95379223,28.7577435 6.48736938,30.0100561 C8.07526357,31.3060676 9.88765518,32.25948 11.8743302,32.8438796 C13.2969287,33.2616408 14.763098,33.473726 16.2329796,33.473726 C17.8697201,33.473726 19.490439,33.2130865 21.0498069,32.6982167 C22.586901,32.1911155 24.0278657,31.450371 25.3330377,30.4952108 C25.9256405,30.0619121 26.4830741,29.5893817 27.003189,29.0801441 L27.008269,29.0768424 C30.4144164,25.9439245 32.5472394,21.4629448 32.5472394,16.4863228 C32.5472394,14.8288731 32.310042,13.2267752 31.8692534,11.7107156" id="Fill-1" fill="#FCD01F"></path>
                        <path d="M19.0320657,10.1676598 C20.1731143,7.49523089 19.5824653,4.25879516 16.7765408,3.89424945 C14.9057291,3.65167214 13.286964,5.08985064 12.7203474,6.59212083 C12.0437291,8.38552262 12.2738926,10.0623941 12.4897931,11.2329413 C12.721129,12.4885556 13.3377642,13.0921827 14.0536549,13.4002112 C15.0997464,13.8504067 16.1856965,13.4936297 16.958835,12.8812628 C17.8820293,12.151006 18.6016324,11.1748703 19.0320657,10.1676598" id="Fill-2" fill="#FFFFFF"></path>
                        <path d="M18.4230505,28.956622 C18.3501719,28.956622 18.2780748,28.9399193 18.2087131,28.9061255 C18.0914821,28.8492198 17.8892586,28.6584985 17.9601834,28.3421187 C17.9666311,28.3143456 18.0021911,28.1941252 18.0445897,28.0871115 C18.4113274,27.1713773 20.1629543,22.9718184 20.2274313,22.8181925 C20.3020684,22.640678 20.352087,22.3759599 20.1674481,22.1244486 C20.1186019,22.0578321 20.0590094,22.0038398 19.9861308,21.9587814 C19.8903921,21.8999335 19.7747242,21.8647802 19.6690209,21.8630323 L19.6553439,21.8622554 L19.6412762,21.8620612 C19.5896946,21.8620612 19.4095496,21.8713836 19.2505061,21.9952942 C19.1092428,22.1050269 19.0555119,22.2064083 18.9927933,22.3235213 C18.9832194,22.3413893 18.9742317,22.3594515 18.9642671,22.3771252 C18.9519578,22.4006255 18.9390624,22.4245142 18.9253854,22.4491798 L16.4342262,27.4040495 C16.38538,27.513588 16.272252,27.6938216 16.2308304,27.7476198 C16.1479871,27.8561872 16.0686608,27.9020225 16.0162976,27.9274649 C15.8789419,27.9938872 15.726737,27.9931103 15.5887952,27.9262996 C15.4377625,27.8523028 15.2931776,27.6569203 15.33245,27.4005536 C15.3373346,27.3675367 15.3492531,27.3253915 15.3713316,27.2593577 C15.4041563,27.1626375 15.4617949,27.0169746 15.4641395,27.0109539 C15.6403768,26.5632832 17.4945808,21.7785478 17.6086857,21.4526513 C17.740766,21.0772294 17.5221301,20.8018294 17.3884867,20.7086051 C17.3087696,20.653059 17.2241679,20.6019799 17.0604353,20.583335 C17.040506,20.5810044 17.019209,20.5800333 16.9973259,20.5800333 C16.8759918,20.5800333 16.7525084,20.6163519 16.6497359,20.6821916 C16.6059697,20.7111299 16.5608357,20.7425931 16.4959679,20.8195032 C16.3803,20.9944929 15.381687,23.0124098 14.7187456,24.3511491 C14.1136381,25.5737464 13.7689789,26.269821 13.7181788,26.3510038 L13.706065,26.3756693 C13.6849634,26.4170376 13.6568279,26.4735548 13.6175555,26.5285183 C13.5202538,26.6638877 13.4094705,26.7406035 13.279344,26.7609963 C13.2480824,26.7662402 13.2191654,26.7685708 13.1904438,26.7685708 C13.1214729,26.7685708 13.0706728,26.7538103 13.028665,26.7394382 C12.8840801,26.6904954 12.7232782,26.5337622 12.7138997,26.306528 C12.7092105,26.1981548 12.7527814,26.0130658 12.8645416,25.6673591 C12.8705985,25.6485201 12.8752878,25.6347307 12.8772416,25.6283215 L12.8793909,25.6199701 C13.4639829,23.8310353 14.6718532,20.5163301 15.1610973,19.5961289 C15.2060359,19.5104791 15.5381904,18.6582539 16.4055046,18.2469019 C16.8959211,18.0144239 17.3400313,17.9035258 18.0529913,17.9899525 C19.0252272,18.1078424 20.0609633,18.6724318 20.3643962,18.8270287 C21.192438,19.2490627 21.9538535,19.8369582 22.2148879,20.303468 C22.6304719,21.0479026 22.6593889,22.1087171 22.0179398,23.4039517 C21.2295612,24.9978924 19.1096335,28.3751356 19.0912673,28.4034913 C19.0076425,28.5324515 18.8466453,28.7624047 18.7108527,28.8602902 C18.6235156,28.923605 18.52426,28.956622 18.4230505,28.956622" id="Fill-3" fill="#FFFFFF"></path>
                        <path d="M23.5599185,20.2100495 C23.3920828,18.8561613 22.5937395,17.1223842 20.2643591,15.9015348 C20.1946066,15.864245 18.6895557,14.9689037 16.3791276,14.6478626 C15.4801611,14.5227867 13.9250916,14.4682117 12.4937008,14.685735 C10.8018618,14.9426843 9.70672863,15.3934625 9.34194477,15.5938947 C8.94121006,15.8137486 8.7970159,16.3270647 9.03812104,16.7281232 C9.19696907,16.9924529 9.57777451,17.2532866 10.0846033,17.0532429 C10.0846033,17.0532429 10.5314489,16.8444593 11.1285455,16.6356758 C11.4140031,16.5358482 11.7445946,16.4362148 12.0570152,16.3591105 C12.7707568,16.1823729 13.334638,16.1037149 13.7877359,16.0615697 C14.2509938,16.0186477 14.598193,16.0139865 14.8164381,16.0139865 C17.4607792,16.0139865 19.4347542,16.7110321 20.7031939,17.727565 C21.4706663,18.3428452 21.9884367,19.1698221 22.1885109,19.8925044 C22.4604869,20.8750493 22.5372732,21.8859499 21.8334963,23.3136407 C21.0847809,24.8335846 18.9699332,28.2139353 18.9187424,28.2923991 C18.8605176,28.3823216 18.7016696,28.6144112 18.5903001,28.6948171 C18.4533352,28.7934795 18.3316103,28.7381276 18.2983949,28.7225902 C18.2772933,28.7122967 18.1090668,28.6167418 18.1610392,28.3864002 C18.16397,28.3735819 18.1956223,28.2626838 18.236067,28.1622735 C18.6059309,27.2374111 20.3720163,22.9935707 20.4169548,22.8974332 C20.5554828,22.6006693 20.5707228,22.2697231 20.3700624,21.9783973 C20.2983561,21.8744911 20.2162944,21.8028249 20.1205557,21.7420349 C19.9884754,21.6581331 19.831972,21.6136574 19.6881686,21.6136574 C19.6881686,21.6136574 19.3839541,21.5868554 19.1156905,21.8123416 C18.9173747,21.9787857 18.8601268,22.139986 18.7821682,22.2819588 C18.7704451,22.3052649 18.7569635,22.3285709 18.7432866,22.3534307 L16.2478289,27.3174286 C16.209338,27.405409 16.1028532,27.5780681 16.0674885,27.623515 C16.0082868,27.7002308 15.9574867,27.7285865 15.9266159,27.7439296 C15.812511,27.7985047 15.7189216,27.7616034 15.6784769,27.7423759 C15.6087244,27.7085821 15.5094688,27.6000147 15.5358458,27.4308515 C15.538972,27.4089049 15.5514766,27.3694788 15.5663259,27.3250031 C15.5979783,27.2321673 15.6552261,27.0857275 15.6552261,27.0857275 C15.8324403,26.6368915 17.6805874,21.8554578 17.8028984,21.5200447 C17.9892957,21.0119724 17.7136074,20.6483978 17.5221301,20.5101151 C17.4365515,20.4481598 17.3054481,20.3679481 17.0944323,20.3454189 C16.9160457,20.3263856 16.7050299,20.3665886 16.5248849,20.4910818 C16.4582586,20.5371113 16.3758061,20.6054758 16.2876874,20.7352129 C16.1692841,20.9094257 13.6632756,26.0509381 13.5438954,26.2432132 C13.5251384,26.274288 13.493486,26.3482847 13.4499152,26.4096574 C13.3823119,26.5046296 13.3178349,26.5477458 13.2469101,26.5592046 C13.174813,26.5710519 13.1378853,26.5603699 13.0954867,26.5459978 C13.0226081,26.5213323 12.9249156,26.4337403 12.919054,26.2973998 C12.9129971,26.1587287 13.0655928,25.7190209 13.0751667,25.6828965 C13.6480356,23.9300861 14.852389,20.6147982 15.3428054,19.6914896 C15.6563984,19.1010692 16.1972242,18.7574989 16.8759918,18.7615775 C17.7415475,18.7666272 18.4337967,19.2125499 18.9019392,19.4698877 C18.9630948,19.5030988 19.0416395,19.5433018 19.1180351,19.5763187 C19.3089263,19.6576958 19.5340098,19.6409931 19.7182579,19.5118386 C19.787815,19.4630901 19.8487751,19.3966678 19.9007475,19.3028609 C19.9697185,19.1764255 19.9960954,19.00163 19.9384569,18.8293593 C19.8560044,18.5828977 19.6252546,18.4589871 19.5832469,18.4345157 C18.8685284,18.0093742 17.6987582,17.7129987 17.172977,17.6817298 C17.0321044,17.6733784 16.8257778,17.652403 16.5661111,17.6865852 C15.9430282,17.769516 15.358827,18.0697758 14.9317153,18.7062256 C14.2849908,19.6707083 12.4425099,25.1340387 12.0665891,26.3801363 C11.9280611,26.838489 12.0333737,27.1315628 12.1846017,27.346367 C12.3371974,27.5633076 12.5622809,27.6945985 12.7103828,27.7384916 C13.1455053,27.8686171 13.4819583,27.7324708 13.713685,27.5337866 C13.8354098,27.4292977 13.9956256,27.2207085 14.1097304,26.9730815 C14.1097304,26.9730815 16.6047974,21.584719 16.7726331,21.356708 C16.8367194,21.2700871 16.9480889,21.2829054 17.0012336,21.3328193 C17.0364029,21.3662246 17.0702045,21.4235187 17.0416783,21.5041189 C16.38538,23.3557858 14.8715367,26.9115146 14.7668103,27.2142993 C14.6886563,27.4399797 14.6054223,27.6384697 14.5821715,27.824724 C14.5497375,28.0909958 14.6085484,28.3246391 14.7672011,28.5567287 C14.8232766,28.6386884 14.9061198,28.7163753 14.9789985,28.772504 C15.1659819,28.9185554 15.4248671,28.9900273 15.6251368,28.981676 C16.0364223,28.9645849 16.3294998,28.7509459 16.5231264,28.4357314 C16.5924881,28.3230854 16.6444605,28.2084972 16.6913529,28.1220706 C16.6913529,28.1220706 19.255,22.8329531 19.4142388,22.6167893 C19.4339727,22.5903758 19.4699235,22.5674581 19.5095867,22.5598836 C19.5400668,22.5544456 19.5709376,22.5581357 19.60767,22.5750326 C19.6336562,22.5868798 19.6580793,22.6070784 19.6774225,22.6463103 C19.690904,22.6721412 19.698524,22.7166169 19.6834794,22.7601216 C19.3206494,23.8242377 17.4344022,28.1014835 17.3644544,28.2964776 C17.3255728,28.4054335 17.2607049,28.5563403 17.2302249,28.6664614 C17.1270616,29.036251 17.2411664,29.4497395 17.5709764,29.7274701 C17.748386,29.8768231 18.0633467,29.997432 18.3581827,29.9504315 C18.6504787,29.9042078 18.9359362,29.7284412 19.1623875,29.4580908 C19.4046649,29.1690956 19.6438162,28.8177566 19.7174764,28.7054991 C19.7174764,28.7054991 21.5878973,25.972086 22.5407902,24.3455168 C23.4600768,22.7768243 23.7140773,21.445271 23.5599185,20.2100495" id="Fill-4" fill="#343433"></path>
                        <path d="M19.1885691,5.15938041 C18.6391464,4.26015468 17.5008331,3.5440758 16.0803839,3.66390782 C14.7226533,3.77849598 13.5663647,4.63052692 12.9305817,5.46818578 C12.11778,6.53968218 11.5640588,7.909302 11.5132587,9.8640983 C11.4923525,10.6757321 11.5994235,11.5901067 11.7899239,12.6116893 C11.9815966,13.6390984 12.2860065,14.584742 12.4849085,16.1361492 C12.506987,16.3097793 12.6183565,17.7431024 12.2178171,19.1241811 C12.0585783,19.6742042 11.7998885,20.4477714 11.4964556,21.142098 C11.0712977,22.1153204 10.5791228,23.2981033 9.95408609,24.145473 C9.7620226,24.4061125 9.55667292,24.4837994 9.30912008,24.4284475 C9.24581533,24.4144639 9.13815818,24.3606657 9.07211803,24.2895822 C8.92323463,24.1295472 8.83706983,23.9091107 8.94804853,23.4855229 C9.22705837,22.4225721 10.2287975,20.5077845 10.6775969,19.7309156 C10.8438695,19.4557098 11.0203022,19.1717643 11.2072857,18.8792731 C11.2229165,18.8540249 11.2301458,18.8417892 11.2469489,18.816541 C11.3954415,18.5959102 11.3391706,18.3003116 11.1156501,18.1569793 C10.9011174,18.0196677 10.606086,18.0736601 10.461501,18.3005058 C10.4337564,18.3442047 10.4026901,18.3925648 10.3749455,18.4360695 C9.29075389,20.1414908 8.2942902,22.0145217 7.87108621,23.1301054 C7.48578692,24.1443077 7.58582406,24.7121989 7.82771073,25.1472454 C8.07565434,25.5929739 8.41621046,25.853225 8.85953911,26.0064624 C9.07485342,26.0816245 9.39333103,26.1146414 9.58187759,26.091918 C10.4202748,25.9893713 10.8653619,25.5335435 11.3274475,24.6898639 C12.222311,23.0545549 12.9473849,21.2570745 13.3645319,19.631088 C13.7814836,18.0076263 13.7810928,16.9108816 13.7345912,16.1429468 C13.6937557,15.466294 13.5442861,14.7735211 13.349878,14.0481198 C13.2365547,13.625309 13.0827867,12.9459371 12.8745062,11.9791238 C12.2178171,8.92719444 12.9004924,7.04678333 13.6789064,6.03607693 C14.0307949,5.57966647 14.493662,5.23046391 14.8287474,5.06013541 C16.5700188,4.17605863 18.288821,5.14636785 18.4470829,6.89335173 C18.696785,9.63725259 16.6135897,11.2875163 16.0155161,11.7462574 C15.987576,11.7682039 15.8978943,11.8410354 15.8797235,11.8587091 C15.714037,11.9948554 15.6102875,12.2013083 15.6139998,12.4308731 C15.6210337,12.8327085 15.9537744,13.1529727 16.3578307,13.1461751 C16.5155064,13.1436503 16.6597006,13.0916 16.7775177,13.005756 C17.0408968,12.8410598 17.3240097,12.6012016 17.6163057,12.3129832 C18.1788192,11.7588815 18.6344571,11.1426303 19.0191703,10.4319894 C20.0670202,8.49350739 20.0009801,6.48840883 19.1885691,5.15938041" id="Fill-5" fill="#343433"></path>
                        <path d="M25.044454,8.1450817 C25.044454,7.63312512 24.6269162,7.21827714 24.1120766,7.21827714 C23.7531543,7.21827714 23.4417106,7.42065148 23.2859887,7.71663852 C23.2336255,7.80636687 23.2146732,7.87667351 23.2146732,7.87667351 L23.2146732,7.87706194 L23.2088116,7.88988028 L20.5949506,14.7327355 C20.4968673,14.9830815 20.6182014,15.2561509 20.8641912,15.3532595 C20.9284728,15.3785078 20.9950991,15.3888013 21.0595762,15.3860823 C21.3489414,15.3732639 21.469494,15.1250543 21.469494,15.1250543 C21.469494,15.1250543 24.917063,8.6244098 24.9567261,8.53584675 C25.0128017,8.41698581 25.044454,8.28472388 25.044454,8.1450817" id="Fill-6" fill="#343433"></path>
                        <path d="M32.0595584,15.1306866 C31.8336933,13.1483115 31.2311258,11.250615 30.2682684,9.48984172 C29.3056063,7.72945686 28.0309143,6.19455818 26.4801433,4.92826192 C24.8742737,3.61710147 23.0409759,2.65261877 21.0318315,2.06200421 C19.5928207,1.63899911 18.1102391,1.4245833 16.6245312,1.4245833 C14.9680569,1.42477751 13.3289718,1.68871871 11.7522146,2.20902664 C10.1971451,2.72214853 8.73976809,3.47163278 7.41974678,4.43728079 C6.13606708,5.37632104 5.01299389,6.49811969 4.07944419,7.7727673 C6.81073162,3.27178326 11.7479161,0.513510325 17.0145198,0.513316108 C18.4345782,0.513121891 19.877106,0.713359843 21.3073244,1.13384012 C28.0461544,3.11466153 32.3510729,9.35058798 32.1336093,16.0205899 C32.117197,15.7242144 32.0931646,15.4276447 32.0595584,15.1306866 L32.0595584,15.1306866 Z M31.0621178,21.1011181 L31.0556701,21.1226762 L31.0486362,21.1442343 C30.5193381,22.9057845 29.6916871,24.4983657 28.6369987,25.8839113 C25.8115357,29.5973446 21.3561707,31.8232681 16.636059,31.8232681 C15.2224482,31.8232681 13.7865636,31.6240012 12.3620113,31.2052689 C6.18139641,29.3889495 2.05779521,23.9766983 1.61622503,17.9435346 C1.51462481,16.556241 1.60782347,15.1367073 1.91496875,13.7198927 C1.97671042,13.4660508 2.04021056,13.2067708 2.10429685,12.9453545 C2.13067383,12.8497996 2.15724619,12.7540505 2.18557702,12.6583014 L2.19202473,12.635578 L2.19730012,12.6171274 C2.69611812,10.9400617 3.46515363,9.41565075 4.44207881,8.07632881 C7.25640489,4.21800955 11.8014516,1.89536583 16.6233589,1.8949774 C18.0369697,1.89478318 19.4728543,2.09424427 20.8974066,2.51278237 C27.180794,4.35978812 31.3380015,9.9227519 31.6623406,16.076136 C31.749287,17.7289246 31.5611312,19.4238582 31.0621178,21.1011181 L31.0621178,21.1011181 Z M16.2273135,33.2641656 C14.807255,33.2641656 13.3649227,33.0639277 11.9341181,32.6436416 C6.60694502,31.0770855 2.80103989,26.8524726 1.54823103,21.8554578 C1.45815853,21.4072045 1.36359217,20.9368104 1.27469198,20.4967141 C1.12541781,19.5277644 1.07051462,18.536674 1.1177978,17.5370379 C1.1334286,17.8870174 1.16019635,18.2369968 1.20025028,18.5873647 C1.42572461,20.569934 2.0279013,22.4678247 2.99114953,24.2282096 C3.95400699,25.9889829 5.22850359,27.5238815 6.77947001,28.7899836 C8.38514424,30.1017267 10.218442,31.0652383 12.2279771,31.6566297 C13.6664018,32.0792464 15.1495696,32.293468 16.636059,32.293468 C18.291361,32.293468 19.9304461,32.0299152 21.5075941,31.5094131 C23.0618821,30.9962912 24.5196498,30.2470012 25.8396711,29.2817416 C27.168094,28.3098786 28.3239919,27.1430216 29.2768847,25.8130221 C26.5708019,30.4272347 21.5683588,33.2641656 16.2273135,33.2641656 L16.2273135,33.2641656 Z M32.1087954,11.6293386 C31.7912947,10.4213075 31.3264737,9.25464467 30.7182401,8.1427511 C29.7512796,6.37440332 28.4713122,4.83309548 26.9135073,3.56136113 C25.3007992,2.24456839 23.4600768,1.27600712 21.4417493,0.68286774 C19.996877,0.258114683 18.5078476,0.042727788 17.0160829,0.042727788 L17.0145198,0.042727788 C15.3523793,0.0429220053 13.7064557,0.307834291 12.1222738,0.830472826 C10.5611474,1.34573111 9.0973227,2.09871126 7.77163523,3.06824362 C7.69074582,3.12728565 7.61024719,3.18749299 7.53072548,3.24808876 L7.54459781,3.23255138 C3.21818694,6.40411856 0.411871658,11.5060107 0.411871658,17.2593073 C0.411871658,19.2216781 0.739141595,21.1075273 1.34112289,22.8671353 C1.64221124,23.8203534 2.03669362,24.7448274 2.52359314,25.6347307 C3.49074907,27.4028842 4.77052106,28.9443863 6.32832596,30.2159264 C7.94103405,31.5329134 9.78195187,32.5014746 11.8002793,33.0942256 C13.2449563,33.5191728 14.7343764,33.7345597 16.2273135,33.7345597 C17.8896494,33.7345597 19.5359637,33.4694532 21.1195594,32.9468147 C22.6806859,32.4319449 24.1447059,31.6789647 25.4703934,30.7094323 C26.0721793,30.2695303 26.6384052,29.7888427 27.1669217,29.2718365 L27.1716109,29.2683406 C30.6320753,26.0864799 32.7981138,21.534611 32.7981138,16.4797194 C32.7981138,14.7964388 32.5572041,13.1690927 32.1087954,11.6293386 L32.1087954,11.6293386 Z" id="Fill-7" fill="#FFFFFF"></path>
                    </g>
                    <g id="Group" transform="translate(40.857035, 7.274817)" fill="#4A4A4A">
                        <path d="M3.42403473,16.7722187 C3.42403473,17.8375333 2.63971235,18.5215883 1.72840773,18.5215883 C0.817448178,18.5215883 0.0320906207,17.8375333 0.0320906207,17.1382694 L0.0320906207,6.27842068 C0.0383017086,4.91342156 -0.0272597746,3.42122069 0.618348305,2.30924242 C1.53862449,0.725442468 2.90782431,0.429905812 4.48889124,0.423683988 L6.79113448,0.423683988 C8.05750629,0.423683988 8.56301983,1.08319737 8.56301983,1.94561135 C8.56301983,2.80767968 8.05750629,3.46719306 6.79113448,3.46719306 L5.4050267,3.46719306 C4.83671216,3.48827813 4.13244381,3.37524832 3.76460938,3.75408829 C3.42541497,4.10527571 3.43887233,4.40703419 3.42403473,5.10111326 L3.42403473,7.37069651 L5.50405905,7.37069651 C6.77043086,7.37069651 7.27628946,8.0309012 7.27628946,8.89227822 C7.27628946,9.75434654 6.77043086,10.4142056 5.50405905,10.4142056 L3.42403473,10.4142056 L3.42403473,16.7722187" id="Fill-8"></path>
                        <path d="M8.77868261,5.818697 C8.77868261,4.80453963 9.20862791,4.14640888 10.2217254,4.14640888 C11.2337876,4.14640888 11.6637329,4.80453963 11.6637329,5.818697 L11.6637329,7.11283646 L11.7144568,7.11283646 C12.0843616,5.22935197 12.8189953,4.12739775 14.0173902,4.14640888 C14.9318003,4.16058081 15.6029429,4.76686303 15.5370363,6.14810803 C15.4918334,7.08656653 15.0563672,7.99979208 13.6129793,7.99979208 C12.651641,7.99979208 11.8680087,8.65930546 11.8680087,9.87601778 L11.8680087,16.6723239 C11.8680087,17.9395021 11.2600122,18.5215883 10.322483,18.5215883 C9.38598898,18.5215883 8.77868261,17.9395021 8.77868261,16.6723239 L8.77868261,5.818697" id="Fill-9"></path>
                        <path d="M22.3257554,9.57218535 L22.3257554,8.43186322 C22.3257554,7.39039896 21.9969128,6.57948785 20.9845055,6.57948785 C19.971408,6.57948785 19.6432556,7.39039896 19.6432556,8.43186322 L19.6432556,9.57218535 L22.3257554,9.57218535 L22.3257554,9.57218535 Z M16.4024479,9.9022877 C16.4024479,6.40251151 16.9096868,4.07693184 21.1111427,4.14640888 C24.3367676,4.20033136 25.4143914,5.9462444 25.4143914,9.54660674 C25.4143914,10.7888977 25.2611846,11.7522435 23.6918497,11.7522435 L19.6432556,11.7522435 L19.6432556,13.1476604 C19.6432556,14.7947156 19.6211717,16.1078662 21.0348843,16.0885094 C21.6929146,16.078831 22.2015337,15.6630057 22.2246527,14.6678595 C22.2563983,13.3239454 22.883028,13.020113 23.7436087,13.020113 C24.6542232,13.020113 25.3125986,13.3239454 25.3125986,14.5416947 C25.3125986,17.0266222 23.6963355,18.4749247 21.1111427,18.5215883 C16.9103769,18.5997068 16.4024479,16.2651401 16.4024479,12.7660552 L16.4024479,9.9022877 L16.4024479,9.9022877 Z" id="Fill-10"></path>
                        <path d="M29.4498732,11.4739897 C27.6772977,10.1542716 27.3729544,9.29254892 27.3729544,7.8480487 C27.3729544,5.36277554 29.1203405,4.14640888 31.5999448,4.14640888 C34.8914763,4.14640888 35.7520571,6.40251151 35.7520571,7.51794635 C35.7520571,8.43186322 35.3718005,9.03952806 34.1319983,9.03952806 C33.296952,9.03952806 32.9166954,8.60883955 32.8663166,7.8480487 C32.8162828,6.9095902 32.4374065,6.41806608 31.5264469,6.45332308 C30.892916,6.47682775 30.4615904,6.85843298 30.4615904,7.51794635 C30.4615904,7.97421347 30.6386064,8.45571354 31.1448101,8.83559049 L33.0433326,10.281819 C34.9666995,11.7263192 35.9797969,12.6398904 35.9797969,14.4905375 C35.9797969,17.1780199 34.0308956,18.5215883 31.4995322,18.5215883 C28.1835014,18.5215883 27.2407963,16.4414251 27.2407963,14.8434532 C27.2407963,13.6775524 28.0164922,13.1476604 28.7504357,13.1476604 C29.8894802,13.1476604 30.2338505,13.8057912 30.3349532,15.0992393 C30.3860222,15.6827082 30.6382614,16.2281548 31.6758581,16.2153655 C32.4867501,16.2039588 32.8977171,15.7590983 32.8918511,14.9481872 C32.8870202,14.3370658 32.6634211,13.8828726 31.8038755,13.2233593 L29.4498732,11.4739897" id="Fill-11"></path>
                        <path d="M38.0439485,2.24529589 C38.0439485,0.977426353 38.6505647,0.39326618 39.5874038,0.39326618 C40.5242429,0.39326618 41.1315493,0.977426353 41.1315493,2.24529589 L41.1550134,5.92066579 L41.2057373,5.92066579 C41.7129761,4.72884077 42.9020544,4.14640888 44.0914777,4.14640888 C45.8126392,4.14640888 47.0527864,5.21103215 47.0527864,7.54352497 L47.0527864,16.6723239 C47.0527864,17.9395021 46.4461702,18.5215883 45.5093311,18.5215883 C44.572492,18.5215883 43.9648405,17.9395021 43.9648405,16.6723239 L43.9648405,8.27873721 C43.9648405,7.26388853 43.4331024,6.83320002 42.774382,6.83320002 C41.7885444,6.83320002 41.1550134,7.56841226 41.1550134,9.29254892 L41.1550134,16.6723239 C41.1550134,17.9395021 40.547707,18.5215883 39.6108679,18.5215883 C38.675064,18.5215883 38.0439485,17.9395021 38.0439485,16.6723239 L38.0439485,2.24529589" id="Fill-12"></path>
                        <path d="M71.9071447,9.57218535 L71.9071447,8.43186322 C71.9071447,7.39143593 71.577612,6.57948785 70.5652047,6.57948785 C69.5531424,6.57948785 69.2236097,7.39143593 69.2236097,8.43186322 L69.2236097,9.57218535 L71.9071447,9.57218535 L71.9071447,9.57218535 Z M65.9845273,9.9022877 C65.9845273,6.40251151 66.490731,4.14640888 70.6921869,4.14640888 C73.9074601,4.14640888 74.9944004,5.9462444 74.9944004,9.54660674 C74.9944004,10.7888977 74.843609,11.7522435 73.2739291,11.7522435 L69.2236097,11.7522435 L69.2236097,13.1476604 C69.2236097,14.7947156 69.350937,16.0885094 70.6159285,16.0885094 C71.2736137,16.0885094 71.7580786,15.5651848 71.806042,14.6678595 C71.8767794,13.3298216 72.4644173,13.0287544 73.3239629,13.020113 C74.1634949,13.0111259 74.894678,13.3249824 74.894678,14.5416947 C74.894678,17.0266222 73.1976707,18.522971 70.6921869,18.522971 C66.490731,18.522971 65.9845273,16.2658314 65.9845273,12.7660552 L65.9845273,9.9022877 L65.9845273,9.9022877 Z" id="Fill-13"></path>
                        <path d="M77.1210079,5.99601899 C77.1210079,4.72953208 77.7279692,4.14640888 78.6648083,4.14640888 C79.6016474,4.14640888 80.2089538,4.72953208 80.2089538,5.92066579 L80.2593326,5.92066579 C80.7655363,4.72953208 81.9556497,4.12808906 83.144728,4.14640888 C85.0553276,4.17475275 86.1067268,5.21103215 86.1067268,7.54352497 L86.1067268,16.6723239 C86.1067268,17.9395021 85.4994204,18.522971 84.5618912,18.522971 C83.6250521,18.522971 83.019126,17.9395021 83.019126,16.6723239 L83.019126,8.27873721 C83.019126,7.26388853 82.4866977,6.83320002 81.8283224,6.83320002 C80.8417946,6.83320002 80.2089538,7.56910358 80.2089538,9.29254892 L80.2089538,16.6723239 C80.2089538,17.9395021 79.6016474,18.522971 78.6648083,18.522971 C77.7279692,18.522971 77.1210079,17.9395021 77.1210079,16.6723239 L77.1210079,5.99601899" id="Fill-14"></path>
                        <path d="M88.8320141,5.99601899 C88.8320141,4.72953208 89.4400106,4.14640888 90.3768497,4.14640888 C91.3119635,4.14640888 91.91996,4.72953208 91.91996,5.99601899 L91.91996,14.3899513 C91.91996,15.403763 92.3499053,15.8351429 93.1086932,15.8351429 C94.1987391,15.8351429 94.7297871,15.0999306 94.7297871,13.3751026 L94.7297871,5.99601899 C94.7297871,4.72953208 95.3381287,4.14640888 96.2735875,4.14640888 C97.2111168,4.14640888 97.8170429,4.72953208 97.8170429,5.99601899 L97.8170429,16.6723239 C97.8170429,17.9395021 97.2111168,18.522971 96.2735875,18.522971 C95.3381287,18.522971 94.7297871,17.9395021 94.7297871,16.7473314 L94.6790633,16.7473314 C94.1728596,17.9395021 92.9834363,18.522971 91.7940129,18.522971 C90.0721614,18.522971 88.8320141,17.4569651 88.8320141,15.1255092 L88.8320141,5.99601899" id="Fill-15"></path>
                        <path d="M50.0444604,3.94177999 C50.0444604,2.44508558 50.5289253,1.19000535 52.5264801,1.11568912 C54.1562006,1.05416219 54.9791697,1.86714723 55.2614292,3.57849458 L56.7783149,11.779896 L56.8242079,11.779896 L58.3414386,4.01747885 C58.7085829,2.12984648 59.3817959,1.10013456 61.0756976,1.11568912 C63.1215609,1.13400893 63.5584074,2.46928157 63.5584074,3.96597597 L63.5584074,16.9350231 C63.5584074,17.9025168 62.8458576,18.5236623 62.0190928,18.5236623 C61.1906027,18.5236623 60.4783979,17.9025168 60.4783979,16.9350231 L60.4704615,3.96355638 L60.4549338,3.96355638 L57.903902,17.5108875 C57.7893419,18.0407796 57.606805,18.5236623 56.802124,18.5236623 C55.996753,18.5236623 55.8128357,18.0407796 55.6982757,17.5108875 L53.1075619,3.96355638 L53.0872033,3.96355638 L53.1244699,16.9350231 C53.1244699,17.9025168 52.4119201,18.5236623 51.5844651,18.5236623 C50.7573553,18.5236623 50.0444604,17.9025168 50.0444604,16.9350231 L50.0444604,3.94177999" id="Fill-16"></path>
                    </g>
                </g>
            </g>
        </g>
    </g>
</svg>